# Aspose.3D Wavefront OBJ Exporter
# Copyright 2004-2021 Aspose Pty Ltd.
# File created: 11/25/2021 18:13:52

mtllib material.lib

#
# object Plane
#

v -200 0 200
v -159.99999940395355232 0 200
v -119.99999880790710448 0 200
v -79.9999982118606568 0 200
v -39.99999761581420896 0 200
v 2.9802322387695312E-06 0 200
v 40.00000357627868652 0 200
v 80.00000417232513427 0 200
v 120.00000476837158203 0 200
v 160.00000536441802978 0 200
v 200.00000596046447753 0 200
v -200 0 159.99999940395355232
v -159.99999940395355232 0 159.99999940395355232
v -119.99999880790710448 0 159.99999940395355232
v -79.9999982118606568 0 159.99999940395355232
v -39.99999761581420896 0 159.99999940395355232
v 2.9802322387695312E-06 0 159.99999940395355232
v 40.00000357627868652 0 159.99999940395355232
v 80.00000417232513427 0 159.99999940395355232
v 120.00000476837158203 0 159.99999940395355232
v 160.00000536441802978 0 159.99999940395355232
v 200.00000596046447753 0 159.99999940395355232
v -200 0 119.99999880790710448
v -159.99999940395355232 0 119.99999880790710448
v -119.99999880790710448 0 119.99999880790710448
v -79.9999982118606568 0 119.99999880790710448
v -39.99999761581420896 0 119.99999880790710448
v 2.9802322387695312E-06 0 119.99999880790710448
v 40.00000357627868652 0 119.99999880790710448
v 80.00000417232513427 0 119.99999880790710448
v 120.00000476837158203 0 119.99999880790710448
v 160.00000536441802978 0 119.99999880790710448
v 200.00000596046447753 0 119.99999880790710448
v -200 0 79.9999982118606568
v -159.99999940395355232 0 79.9999982118606568
v -119.99999880790710448 0 79.9999982118606568
v -79.9999982118606568 0 79.9999982118606568
v -39.99999761581420896 0 79.9999982118606568
v 2.9802322387695312E-06 0 79.9999982118606568
v 40.00000357627868652 0 79.9999982118606568
v 80.00000417232513427 0 79.9999982118606568
v 120.00000476837158203 0 79.9999982118606568
v 160.00000536441802978 0 79.9999982118606568
v 200.00000596046447753 0 79.9999982118606568
v -200 0 39.99999761581420896
v -159.99999940395355232 0 39.99999761581420896
v -119.99999880790710448 0 39.99999761581420896
v -79.9999982118606568 0 39.99999761581420896
v -39.99999761581420896 0 39.99999761581420896
v 2.9802322387695312E-06 0 39.99999761581420896
v 40.00000357627868652 0 39.99999761581420896
v 80.00000417232513427 0 39.99999761581420896
v 120.00000476837158203 0 39.99999761581420896
v 160.00000536441802978 0 39.99999761581420896
v 200.00000596046447753 0 39.99999761581420896
v -200 0 -2.9802322387695312E-06
v -159.99999940395355232 0 -2.9802322387695312E-06
v -119.99999880790710448 0 -2.9802322387695312E-06
v -79.9999982118606568 0 -2.9802322387695312E-06
v -39.99999761581420896 0 -2.9802322387695312E-06
v 2.9802322387695312E-06 0 -2.9802322387695312E-06
v 40.00000357627868652 0 -2.9802322387695312E-06
v 80.00000417232513427 0 -2.9802322387695312E-06
v 120.00000476837158203 0 -2.9802322387695312E-06
v 160.00000536441802978 0 -2.9802322387695312E-06
v 200.00000596046447753 0 -2.9802322387695312E-06
v -200 0 -40.00000357627868652
v -159.99999940395355232 0 -40.00000357627868652
v -119.99999880790710448 0 -40.00000357627868652
v -79.9999982118606568 0 -40.00000357627868652
v -39.99999761581420896 0 -40.00000357627868652
v 2.9802322387695312E-06 0 -40.00000357627868652
v 40.00000357627868652 0 -40.00000357627868652
v 80.00000417232513427 0 -40.00000357627868652
v 120.00000476837158203 0 -40.00000357627868652
v 160.00000536441802978 0 -40.00000357627868652
v 200.00000596046447753 0 -40.00000357627868652
v -200 0 -80.00000417232513427
v -159.99999940395355232 0 -80.00000417232513427
v -119.99999880790710448 0 -80.00000417232513427
v -79.9999982118606568 0 -80.00000417232513427
v -39.99999761581420896 0 -80.00000417232513427
v 2.9802322387695312E-06 0 -80.00000417232513427
v 40.00000357627868652 0 -80.00000417232513427
v 80.00000417232513427 0 -80.00000417232513427
v 120.00000476837158203 0 -80.00000417232513427
v 160.00000536441802978 0 -80.00000417232513427
v 200.00000596046447753 0 -80.00000417232513427
v -200 0 -120.00000476837158203
v -159.99999940395355232 0 -120.00000476837158203
v -119.99999880790710448 0 -120.00000476837158203
v -79.9999982118606568 0 -120.00000476837158203
v -39.99999761581420896 0 -120.00000476837158203
v 2.9802322387695312E-06 0 -120.00000476837158203
v 40.00000357627868652 0 -120.00000476837158203
v 80.00000417232513427 0 -120.00000476837158203
v 120.00000476837158203 0 -120.00000476837158203
v 160.00000536441802978 0 -120.00000476837158203
v 200.00000596046447753 0 -120.00000476837158203
v -200 0 -160.00000536441802978
v -159.99999940395355232 0 -160.00000536441802978
v -119.99999880790710448 0 -160.00000536441802978
v -79.9999982118606568 0 -160.00000536441802978
v -39.99999761581420896 0 -160.00000536441802978
v 2.9802322387695312E-06 0 -160.00000536441802978
v 40.00000357627868652 0 -160.00000536441802978
v 80.00000417232513427 0 -160.00000536441802978
v 120.00000476837158203 0 -160.00000536441802978
v 160.00000536441802978 0 -160.00000536441802978
v 200.00000596046447753 0 -160.00000536441802978
v -200 0 -200.00000596046447753
v -159.99999940395355232 0 -200.00000596046447753
v -119.99999880790710448 0 -200.00000596046447753
v -79.9999982118606568 0 -200.00000596046447753
v -39.99999761581420896 0 -200.00000596046447753
v 2.9802322387695312E-06 0 -200.00000596046447753
v 40.00000357627868652 0 -200.00000596046447753
v 80.00000417232513427 0 -200.00000596046447753
v 120.00000476837158203 0 -200.00000596046447753
v 160.00000536441802978 0 -200.00000596046447753
v 200.00000596046447753 0 -200.00000596046447753
# 121 vertices

vn 0 1 0
vn 0 1 0
vn 0 1 0
vn 0 1 0
vn 0 1 0
vn 0 1 0
vn 0 1 0
vn 0 1 0
vn 0 1 0
vn 0 1 0
vn 0 1 0
vn 0 1 0
vn 0 1 0
vn 0 1 0
vn 0 1 0
vn 0 1 0
vn 0 1 0
vn 0 1 0
vn 0 1 0
vn 0 1 0
vn 0 1 0
vn 0 1 0
vn 0 1 0
vn 0 1 0
vn 0 1 0
vn 0 1 0
vn 0 1 0
vn 0 1 0
vn 0 1 0
vn 0 1 0
vn 0 1 0
vn 0 1 0
vn 0 1 0
vn 0 1 0
vn 0 1 0
vn 0 1 0
vn 0 1 0
vn 0 1 0
vn 0 1 0
vn 0 1 0
vn 0 1 0
vn 0 1 0
vn 0 1 0
vn 0 1 0
vn 0 1 0
vn 0 1 0
vn 0 1 0
vn 0 1 0
vn 0 1 0
vn 0 1 0
vn 0 1 0
vn 0 1 0
vn 0 1 0
vn 0 1 0
vn 0 1 0
vn 0 1 0
vn 0 1 0
vn 0 1 0
vn 0 1 0
vn 0 1 0
vn 0 1 0
vn 0 1 0
vn 0 1 0
vn 0 1 0
vn 0 1 0
vn 0 1 0
vn 0 1 0
vn 0 1 0
vn 0 1 0
vn 0 1 0
vn 0 1 0
vn 0 1 0
vn 0 1 0
vn 0 1 0
vn 0 1 0
vn 0 1 0
vn 0 1 0
vn 0 1 0
vn 0 1 0
vn 0 1 0
vn 0 1 0
vn 0 1 0
vn 0 1 0
vn 0 1 0
vn 0 1 0
vn 0 1 0
vn 0 1 0
vn 0 1 0
vn 0 1 0
vn 0 1 0
vn 0 1 0
vn 0 1 0
vn 0 1 0
vn 0 1 0
vn 0 1 0
vn 0 1 0
vn 0 1 0
vn 0 1 0
vn 0 1 0
vn 0 1 0
vn 0 1 0
vn 0 1 0
vn 0 1 0
vn 0 1 0
vn 0 1 0
vn 0 1 0
vn 0 1 0
vn 0 1 0
vn 0 1 0
vn 0 1 0
vn 0 1 0
vn 0 1 0
vn 0 1 0
vn 0 1 0
vn 0 1 0
vn 0 1 0
vn 0 1 0
vn 0 1 0
vn 0 1 0
vn 0 1 0
vn 0 1 0
vn 0 1 0
vn 0 1 0
vn 0 1 0
vn 0 1 0
vn 0 1 0
vn 0 1 0
vn 0 1 0
vn 0 1 0
vn 0 1 0
vn 0 1 0
vn 0 1 0
vn 0 1 0
vn 0 1 0
vn 0 1 0
vn 0 1 0
vn 0 1 0
vn 0 1 0
vn 0 1 0
vn 0 1 0
vn 0 1 0
vn 0 1 0
vn 0 1 0
vn 0 1 0
vn 0 1 0
vn 0 1 0
vn 0 1 0
vn 0 1 0
vn 0 1 0
vn 0 1 0
vn 0 1 0
vn 0 1 0
vn 0 1 0
vn 0 1 0
vn 0 1 0
vn 0 1 0
vn 0 1 0
vn 0 1 0
vn 0 1 0
vn 0 1 0
vn 0 1 0
vn 0 1 0
vn 0 1 0
vn 0 1 0
vn 0 1 0
vn 0 1 0
vn 0 1 0
vn 0 1 0
vn 0 1 0
vn 0 1 0
vn 0 1 0
vn 0 1 0
vn 0 1 0
vn 0 1 0
vn 0 1 0
vn 0 1 0
vn 0 1 0
vn 0 1 0
vn 0 1 0
vn 0 1 0
vn 0 1 0
vn 0 1 0
vn 0 1 0
vn 0 1 0
vn 0 1 0
vn 0 1 0
vn 0 1 0
vn 0 1 0
vn 0 1 0
vn 0 1 0
vn 0 1 0
vn 0 1 0
vn 0 1 0
vn 0 1 0
vn 0 1 0
vn 0 1 0
vn 0 1 0
vn 0 1 0
vn 0 1 0
vn 0 1 0
vn 0 1 0
vn 0 1 0
vn 0 1 0
vn 0 1 0
vn 0 1 0
vn 0 1 0
vn 0 1 0
vn 0 1 0
vn 0 1 0
vn 0 1 0
vn 0 1 0
vn 0 1 0
vn 0 1 0
vn 0 1 0
vn 0 1 0
vn 0 1 0
vn 0 1 0
vn 0 1 0
vn 0 1 0
vn 0 1 0
vn 0 1 0
vn 0 1 0
vn 0 1 0
vn 0 1 0
vn 0 1 0
vn 0 1 0
vn 0 1 0
vn 0 1 0
vn 0 1 0
vn 0 1 0
vn 0 1 0
vn 0 1 0
vn 0 1 0
vn 0 1 0
vn 0 1 0
vn 0 1 0
vn 0 1 0
vn 0 1 0
vn 0 1 0
vn 0 1 0
vn 0 1 0
vn 0 1 0
vn 0 1 0
vn 0 1 0
vn 0 1 0
vn 0 1 0
vn 0 1 0
vn 0 1 0
vn 0 1 0
vn 0 1 0
vn 0 1 0
vn 0 1 0
vn 0 1 0
vn 0 1 0
vn 0 1 0
vn 0 1 0
vn 0 1 0
vn 0 1 0
vn 0 1 0
vn 0 1 0
vn 0 1 0
vn 0 1 0
vn 0 1 0
vn 0 1 0
vn 0 1 0
vn 0 1 0
vn 0 1 0
vn 0 1 0
vn 0 1 0
vn 0 1 0
vn 0 1 0
vn 0 1 0
vn 0 1 0
vn 0 1 0
vn 0 1 0
vn 0 1 0
vn 0 1 0
vn 0 1 0
vn 0 1 0
vn 0 1 0
vn 0 1 0
vn 0 1 0
vn 0 1 0
vn 0 1 0
vn 0 1 0
vn 0 1 0
vn 0 1 0
vn 0 1 0
vn 0 1 0
vn 0 1 0
vn 0 1 0
vn 0 1 0
vn 0 1 0
vn 0 1 0
vn 0 1 0
vn 0 1 0
vn 0 1 0
vn 0 1 0
vn 0 1 0
vn 0 1 0
vn 0 1 0
vn 0 1 0
vn 0 1 0
vn 0 1 0
vn 0 1 0
vn 0 1 0
vn 0 1 0
vn 0 1 0
vn 0 1 0
vn 0 1 0
vn 0 1 0
vn 0 1 0
vn 0 1 0
vn 0 1 0
vn 0 1 0
vn 0 1 0
vn 0 1 0
vn 0 1 0
vn 0 1 0
vn 0 1 0
vn 0 1 0
vn 0 1 0
vn 0 1 0
vn 0 1 0
vn 0 1 0
vn 0 1 0
vn 0 1 0
vn 0 1 0
vn 0 1 0
vn 0 1 0
vn 0 1 0
vn 0 1 0
vn 0 1 0
vn 0 1 0
vn 0 1 0
vn 0 1 0
vn 0 1 0
vn 0 1 0
vn 0 1 0
vn 0 1 0
vn 0 1 0
vn 0 1 0
vn 0 1 0
vn 0 1 0
vn 0 1 0
vn 0 1 0
vn 0 1 0
vn 0 1 0
vn 0 1 0
vn 0 1 0
vn 0 1 0
vn 0 1 0
vn 0 1 0
vn 0 1 0
vn 0 1 0
vn 0 1 0
vn 0 1 0
vn 0 1 0
vn 0 1 0
vn 0 1 0
vn 0 1 0
vn 0 1 0
vn 0 1 0
vn 0 1 0
vn 0 1 0
vn 0 1 0
vn 0 1 0
vn 0 1 0
vn 0 1 0
vn 0 1 0
vn 0 1 0
vn 0 1 0
vn 0 1 0
vn 0 1 0
vn 0 1 0
vn 0 1 0
vn 0 1 0
vn 0 1 0
vn 0 1 0
vn 0 1 0
vn 0 1 0
vn 0 1 0
vn 0 1 0
vn 0 1 0
vn 0 1 0
vn 0 1 0
vn 0 1 0
vn 0 1 0
vn 0 1 0
vn 0 1 0
vn 0 1 0
vn 0 1 0
vn 0 1 0
vn 0 1 0
vn 0 1 0
vn 0 1 0
vn 0 1 0
vn 0 1 0
vn 0 1 0
vn 0 1 0
# 400 vertex normals

vt 0.09999999403953552 0 0
vt 0.09999999403953552 0.10000002384185792 0
vt 0 0.10000002384185792 0
vt 0 0 0
vt 0.19999998807907104 0 0
vt 0.19999998807907104 0.10000002384185792 0
vt 0.30000001192092896 0 0
vt 0.30000001192092896 0.10000002384185792 0
vt 0.39999997615814208 0 0
vt 0.39999997615814208 0.10000002384185792 0
vt 0.5 0 0
vt 0.5 0.10000002384185792 0
vt 0.60000002384185792 0 0
vt 0.60000002384185792 0.10000002384185792 0
vt 0.69999992847442624 0 0
vt 0.69999992847442624 0.10000002384185792 0
vt 0.79999995231628416 0 0
vt 0.79999995231628416 0.10000002384185792 0
vt 0.89999997615814208 0 0
vt 0.89999997615814208 0.10000002384185792 0
vt 1 0 0
vt 1 0.10000002384185792 0
vt 0.09999999403953552 0.20000004768371584 0
vt 0 0.20000004768371584 0
vt 0.19999998807907104 0.20000004768371584 0
vt 0.30000001192092896 0.20000004768371584 0
vt 0.39999997615814208 0.20000004768371584 0
vt 0.5 0.20000004768371584 0
vt 0.60000002384185792 0.20000004768371584 0
vt 0.69999992847442624 0.20000004768371584 0
vt 0.79999995231628416 0.20000004768371584 0
vt 0.89999997615814208 0.20000004768371584 0
vt 1 0.20000004768371584 0
vt 0.09999999403953552 0.30000007152557372 0
vt 0 0.30000007152557372 0
vt 0.19999998807907104 0.30000007152557372 0
vt 0.30000001192092896 0.30000007152557372 0
vt 0.39999997615814208 0.30000007152557372 0
vt 0.5 0.30000007152557372 0
vt 0.60000002384185792 0.30000007152557372 0
vt 0.69999992847442624 0.30000007152557372 0
vt 0.79999995231628416 0.30000007152557372 0
vt 0.89999997615814208 0.30000007152557372 0
vt 1 0.30000007152557372 0
vt 0.09999999403953552 0.39999997615814208 0
vt 0 0.39999997615814208 0
vt 0.19999998807907104 0.39999997615814208 0
vt 0.30000001192092896 0.39999997615814208 0
vt 0.39999997615814208 0.39999997615814208 0
vt 0.5 0.39999997615814208 0
vt 0.60000002384185792 0.39999997615814208 0
vt 0.69999992847442624 0.39999997615814208 0
vt 0.79999995231628416 0.39999997615814208 0
vt 0.89999997615814208 0.39999997615814208 0
vt 1 0.39999997615814208 0
vt 0.09999999403953552 0.5 0
vt 0 0.5 0
vt 0.19999998807907104 0.5 0
vt 0.30000001192092896 0.5 0
vt 0.39999997615814208 0.5 0
vt 0.5 0.5 0
vt 0.60000002384185792 0.5 0
vt 0.69999992847442624 0.5 0
vt 0.79999995231628416 0.5 0
vt 0.89999997615814208 0.5 0
vt 1 0.5 0
vt 0.09999999403953552 0.60000002384185792 0
vt 0 0.60000002384185792 0
vt 0.19999998807907104 0.60000002384185792 0
vt 0.30000001192092896 0.60000002384185792 0
vt 0.39999997615814208 0.60000002384185792 0
vt 0.5 0.60000002384185792 0
vt 0.60000002384185792 0.60000002384185792 0
vt 0.69999992847442624 0.60000002384185792 0
vt 0.79999995231628416 0.60000002384185792 0
vt 0.89999997615814208 0.60000002384185792 0
vt 1 0.60000002384185792 0
vt 0.09999999403953552 0.69999998807907104 0
vt 0 0.69999998807907104 0
vt 0.19999998807907104 0.69999998807907104 0
vt 0.30000001192092896 0.69999998807907104 0
vt 0.39999997615814208 0.69999998807907104 0
vt 0.5 0.69999998807907104 0
vt 0.60000002384185792 0.69999998807907104 0
vt 0.69999992847442624 0.69999998807907104 0
vt 0.79999995231628416 0.69999998807907104 0
vt 0.89999997615814208 0.69999998807907104 0
vt 1 0.69999998807907104 0
vt 0.09999999403953552 0.80000001192092896 0
vt 0 0.80000001192092896 0
vt 0.19999998807907104 0.80000001192092896 0
vt 0.30000001192092896 0.80000001192092896 0
vt 0.39999997615814208 0.80000001192092896 0
vt 0.5 0.80000001192092896 0
vt 0.60000002384185792 0.80000001192092896 0
vt 0.69999992847442624 0.80000001192092896 0
vt 0.79999995231628416 0.80000001192092896 0
vt 0.89999997615814208 0.80000001192092896 0
vt 1 0.80000001192092896 0
vt 0.09999999403953552 0.90000003576278688 0
vt 0 0.90000003576278688 0
vt 0.19999998807907104 0.90000003576278688 0
vt 0.30000001192092896 0.90000003576278688 0
vt 0.39999997615814208 0.90000003576278688 0
vt 0.5 0.90000003576278688 0
vt 0.60000002384185792 0.90000003576278688 0
vt 0.69999992847442624 0.90000003576278688 0
vt 0.79999995231628416 0.90000003576278688 0
vt 0.89999997615814208 0.90000003576278688 0
vt 1 0.90000003576278688 0
vt 0.09999999403953552 1 0
vt 0 1 0
vt 0.19999998807907104 1 0
vt 0.30000001192092896 1 0
vt 0.39999997615814208 1 0
vt 0.5 1 0
vt 0.60000002384185792 1 0
vt 0.69999992847442624 1 0
vt 0.79999995231628416 1 0
vt 0.89999997615814208 1 0
vt 1 1 0
# 121 texture coords

g Plane
usemtl floortile1
s 1
f 2/1/1 13/2/2 12/3/3 1/4/4
f 3/5/5 14/6/6 13/2/7 2/1/8
f 4/7/9 15/8/10 14/6/11 3/5/12
f 5/9/13 16/10/14 15/8/15 4/7/16
f 6/11/17 17/12/18 16/10/19 5/9/20
f 7/13/21 18/14/22 17/12/23 6/11/24
f 8/15/25 19/16/26 18/14/27 7/13/28
f 9/17/29 20/18/30 19/16/31 8/15/32
f 10/19/33 21/20/34 20/18/35 9/17/36
f 11/21/37 22/22/38 21/20/39 10/19/40
f 13/2/41 24/23/42 23/24/43 12/3/44
f 14/6/45 25/25/46 24/23/47 13/2/48
f 15/8/49 26/26/50 25/25/51 14/6/52
f 16/10/53 27/27/54 26/26/55 15/8/56
f 17/12/57 28/28/58 27/27/59 16/10/60
f 18/14/61 29/29/62 28/28/63 17/12/64
f 19/16/65 30/30/66 29/29/67 18/14/68
f 20/18/69 31/31/70 30/30/71 19/16/72
f 21/20/73 32/32/74 31/31/75 20/18/76
f 22/22/77 33/33/78 32/32/79 21/20/80
f 24/23/81 35/34/82 34/35/83 23/24/84
f 25/25/85 36/36/86 35/34/87 24/23/88
f 26/26/89 37/37/90 36/36/91 25/25/92
f 27/27/93 38/38/94 37/37/95 26/26/96
f 28/28/97 39/39/98 38/38/99 27/27/100
f 29/29/101 40/40/102 39/39/103 28/28/104
f 30/30/105 41/41/106 40/40/107 29/29/108
f 31/31/109 42/42/110 41/41/111 30/30/112
f 32/32/113 43/43/114 42/42/115 31/31/116
f 33/33/117 44/44/118 43/43/119 32/32/120
f 35/34/121 46/45/122 45/46/123 34/35/124
f 36/36/125 47/47/126 46/45/127 35/34/128
f 37/37/129 48/48/130 47/47/131 36/36/132
f 38/38/133 49/49/134 48/48/135 37/37/136
f 39/39/137 50/50/138 49/49/139 38/38/140
f 40/40/141 51/51/142 50/50/143 39/39/144
f 41/41/145 52/52/146 51/51/147 40/40/148
f 42/42/149 53/53/150 52/52/151 41/41/152
f 43/43/153 54/54/154 53/53/155 42/42/156
f 44/44/157 55/55/158 54/54/159 43/43/160
f 46/45/161 57/56/162 56/57/163 45/46/164
f 47/47/165 58/58/166 57/56/167 46/45/168
f 48/48/169 59/59/170 58/58/171 47/47/172
f 49/49/173 60/60/174 59/59/175 48/48/176
f 50/50/177 61/61/178 60/60/179 49/49/180
f 51/51/181 62/62/182 61/61/183 50/50/184
f 52/52/185 63/63/186 62/62/187 51/51/188
f 53/53/189 64/64/190 63/63/191 52/52/192
f 54/54/193 65/65/194 64/64/195 53/53/196
f 55/55/197 66/66/198 65/65/199 54/54/200
f 57/56/201 68/67/202 67/68/203 56/57/204
f 58/58/205 69/69/206 68/67/207 57/56/208
f 59/59/209 70/70/210 69/69/211 58/58/212
f 60/60/213 71/71/214 70/70/215 59/59/216
f 61/61/217 72/72/218 71/71/219 60/60/220
f 62/62/221 73/73/222 72/72/223 61/61/224
f 63/63/225 74/74/226 73/73/227 62/62/228
f 64/64/229 75/75/230 74/74/231 63/63/232
f 65/65/233 76/76/234 75/75/235 64/64/236
f 66/66/237 77/77/238 76/76/239 65/65/240
f 68/67/241 79/78/242 78/79/243 67/68/244
f 69/69/245 80/80/246 79/78/247 68/67/248
f 70/70/249 81/81/250 80/80/251 69/69/252
f 71/71/253 82/82/254 81/81/255 70/70/256
f 72/72/257 83/83/258 82/82/259 71/71/260
f 73/73/261 84/84/262 83/83/263 72/72/264
f 74/74/265 85/85/266 84/84/267 73/73/268
f 75/75/269 86/86/270 85/85/271 74/74/272
f 76/76/273 87/87/274 86/86/275 75/75/276
f 77/77/277 88/88/278 87/87/279 76/76/280
f 79/78/281 90/89/282 89/90/283 78/79/284
f 80/80/285 91/91/286 90/89/287 79/78/288
f 81/81/289 92/92/290 91/91/291 80/80/292
f 82/82/293 93/93/294 92/92/295 81/81/296
f 83/83/297 94/94/298 93/93/299 82/82/300
f 84/84/301 95/95/302 94/94/303 83/83/304
f 85/85/305 96/96/306 95/95/307 84/84/308
f 86/86/309 97/97/310 96/96/311 85/85/312
f 87/87/313 98/98/314 97/97/315 86/86/316
f 88/88/317 99/99/318 98/98/319 87/87/320
f 90/89/321 101/100/322 100/101/323 89/90/324
f 91/91/325 102/102/326 101/100/327 90/89/328
f 92/92/329 103/103/330 102/102/331 91/91/332
f 93/93/333 104/104/334 103/103/335 92/92/336
f 94/94/337 105/105/338 104/104/339 93/93/340
f 95/95/341 106/106/342 105/105/343 94/94/344
f 96/96/345 107/107/346 106/106/347 95/95/348
f 97/97/349 108/108/350 107/107/351 96/96/352
f 98/98/353 109/109/354 108/108/355 97/97/356
f 99/99/357 110/110/358 109/109/359 98/98/360
f 101/100/361 112/111/362 111/112/363 100/101/364
f 102/102/365 113/113/366 112/111/367 101/100/368
f 103/103/369 114/114/370 113/113/371 102/102/372
f 104/104/373 115/115/374 114/114/375 103/103/376
f 105/105/377 116/116/378 115/115/379 104/104/380
f 106/106/381 117/117/382 116/116/383 105/105/384
f 107/107/385 118/118/386 117/117/387 106/106/388
f 108/108/389 119/119/390 118/118/391 107/107/392
f 109/109/393 120/120/394 119/119/395 108/108/396
f 110/110/397 121/121/398 120/120/399 109/109/400
#100 polygons

